<svg width="888" height="700" viewBox="0 0 888 700" fill="none" xmlns="http://www.w3.org/2000/svg">
<path fill-rule="evenodd" clip-rule="evenodd" d="M196.594 0.463388C195.901 0.71854 194.202 1.48866 192.817 2.17542C191.432 2.86181 188.8 3.95574 186.968 4.6062C182.936 6.03793 181.098 7.59471 180.462 10.115C179.864 12.4886 179.911 12.9511 181.305 18.4818C182.023 21.3277 182.564 24.3697 182.564 25.5542C182.564 27.535 182.638 27.7036 184.133 29.1537C186.291 31.247 187.501 33.2159 187.966 35.3901C188.447 37.6398 189.291 38.5986 191.289 39.1667C193.287 39.7349 194.435 40.7839 194.435 42.0392C194.435 43.7325 192.661 48.8205 190.691 52.7761C187.513 59.1581 182.847 66.8831 181.125 68.6131C178.146 71.6063 174.125 72.8989 167.815 72.8917C163.1 72.8863 160.328 72.1439 154.888 69.4299C150.177 67.0797 149.986 67.019 147.334 67.0362C141.592 67.0732 138.19 69.5058 134.816 75.9895C132.922 79.6285 132.118 80.6786 131.123 80.8169C129.829 80.997 129.223 80.6929 127.09 78.7912C124.484 76.4682 122.293 75.2625 119.77 74.7619C118.792 74.5682 117.47 74.1977 116.831 73.9386C115.791 73.5171 115.565 73.5451 114.672 74.2056C113.379 75.163 112.157 76.9742 111.703 78.6082C111.48 79.41 111.343 87.6938 111.347 100.213C111.353 119.139 111.398 120.615 112.013 121.955C112.891 123.866 114.175 125.093 117.648 127.338C122.286 130.338 124.288 133.571 124.288 138.065C124.288 142.487 122.233 146.666 119.222 148.368C117.671 149.245 117.481 149.264 111.47 149.154C106.432 149.062 105.056 149.147 103.921 149.62C102.29 150.301 101.037 151.397 100.324 152.766C99.8812 153.617 99.8812 153.907 100.327 154.922C100.892 156.212 102.587 158.063 104.624 159.614C105.484 160.269 105.941 160.911 105.941 161.465C105.941 161.931 104.873 165.037 103.567 168.368C102.261 171.698 100.175 177.059 98.9322 180.28C97.6893 183.502 96.5799 186.23 96.4673 186.342C96.3547 186.455 95.0813 186.245 93.6373 185.875C91.3746 185.296 89.5975 185.204 80.76 185.204H70.5076L66.9103 186.415C54.9754 190.432 45.0659 199.059 38.7443 210.935C34.0293 219.793 31.8597 232.42 33.422 241.911C34.7908 250.228 38.9141 259.897 43.8737 266.421C45.2026 268.169 52.5533 276.322 55.6999 279.538C56.9568 280.823 57.9159 282.076 57.8313 282.323C57.7338 282.607 56.9705 282.772 55.7546 282.772C54.6973 282.772 52.5659 282.938 51.018 283.141C38.9292 284.726 31.9637 285.843 29.5693 286.58C27.2458 287.295 25.995 287.444 22.2984 287.444C18.8158 287.444 17.4154 287.595 15.9318 288.128C14.8854 288.504 12.8155 288.894 11.3316 288.995C9.55738 289.115 7.15544 289.665 4.31679 290.603L0 292.029L1.72851 292.787C4.24664 293.891 6.79103 294.549 10.2524 294.991C11.9341 295.205 18.4903 296.125 24.8216 297.034C35.3236 298.541 37.1532 298.705 45.686 298.905C50.8302 299.025 55.2236 299.243 55.4488 299.39C56.6967 300.2 61.4988 300.8 66.5505 300.778C71.9793 300.753 74.1139 300.966 77.2396 301.844C78.8055 302.284 79.1221 302.253 81.3766 301.441C83.6871 300.608 84.1735 300.567 90.4756 300.668C96.6055 300.765 97.5185 300.694 101.987 299.769C106.666 298.8 107.209 298.765 117.118 298.79C127.213 298.816 127.426 298.832 129.169 299.681C130.7 300.426 131.382 300.532 134.151 300.453C136.945 300.374 137.773 300.505 140.568 301.472L143.777 302.582L166.858 302.65L189.939 302.717L193.045 303.881C197.578 305.579 200.537 306.184 205.567 306.441L210.045 306.67L211.42 313.319C212.449 318.296 212.85 321.232 213.016 324.998C213.183 328.776 213.416 330.477 213.952 331.826C214.449 333.074 214.749 334.995 214.934 338.115C215.11 341.07 215.415 343.099 215.826 344.045C216.169 344.835 216.92 348.231 217.494 351.592C218.95 360.114 223.382 377.988 224.72 380.727C225.905 383.157 227.049 384.457 231.48 388.415C235.478 391.986 238.177 395.717 241.201 401.855C244.616 408.787 245.47 409.633 254.267 414.81C257.2 416.536 260.25 418.597 261.044 419.391C263.574 421.918 264.173 424.746 262.742 427.413C262.136 428.542 261.84 430.28 261.303 435.853C260.932 439.713 260.444 443.761 260.22 444.848C259.948 446.165 259.76 455.143 259.657 471.751C259.523 493.394 259.579 497.205 260.085 500.681C260.822 505.742 261.703 509.214 263.544 514.304C264.346 516.523 265.918 520.926 267.036 524.089L269.07 529.839L269.067 534.69C269.063 539.246 268.993 539.736 267.909 542.725C265.714 548.778 265.561 550.123 265.447 564.338C265.391 571.454 265.242 578.125 265.118 579.162C264.894 581.029 264.879 581.049 263.651 581.049C262.551 581.049 261.775 580.455 256.752 575.768C245.032 564.829 241.631 561.673 237.783 558.165C229.69 550.785 227.443 547.639 224.78 539.961C220.864 528.674 215.608 521.383 203.789 510.844C196.813 504.624 191.988 500.7 182.171 493.263C177.469 489.7 177.717 490.218 177.686 483.903C177.663 479.232 177.546 478.139 176.872 476.293C175.124 471.506 172.644 467.713 170.882 467.132C170.192 466.905 169.487 466.806 169.314 466.912C169.138 467.021 169.172 468.02 169.391 469.184C170.007 472.454 169.91 476.332 169.196 477.045C168.638 477.602 168.319 477.365 164.488 473.554C162.228 471.305 158.406 467.083 155.995 464.173C153.305 460.926 150.947 458.446 149.892 457.756C148.946 457.138 147.776 456.051 147.292 455.341C146.421 454.066 146.412 453.972 146.519 447.024C146.633 439.596 146.337 437.151 144.741 432.316C143.833 429.565 141.435 426.816 140.671 427.65C140.232 428.128 139.376 431.963 138.678 436.582C138.484 437.867 138.169 439.457 137.978 440.116C137.65 441.25 135.917 444.489 135.64 444.489C135.568 444.489 135.191 443.963 134.801 443.321C134.411 442.678 133.159 440.616 132.018 438.739C127.984 432.1 126.822 428.246 126.812 421.464C126.805 417.141 127.269 414.786 128.645 412.147C129.094 411.288 129.275 410.456 129.134 409.898C128.916 409.028 125.531 405.388 125.229 405.698C124.925 406.011 121.399 415.986 120.536 418.973C118.652 425.503 118.522 428.946 120.035 432.27C120.439 433.159 120.912 434.453 121.085 435.145C121.434 436.537 121.124 440.535 120.667 440.535C119.979 440.535 108.767 425.656 107.354 422.868C105.953 420.105 103.675 414.053 102.502 409.982C101.481 406.436 101.203 405.719 99.8747 403.203L99.0427 401.628L98.0196 403.417C95.8853 407.151 95.1806 416.17 96.5925 421.685C96.9904 423.24 97.9329 425.782 98.6869 427.335L100.057 430.159L99.1589 429.934C97.7037 429.569 94.5928 427.332 93.2283 425.668C92.5322 424.82 90.83 422.375 89.4457 420.235L86.929 416.346L86.6732 417.708C86.5326 418.457 86.3991 420.949 86.3765 423.244C86.3358 427.415 86.3373 427.421 87.7212 430.114C90.2594 435.053 93.7456 439.843 97.6674 443.782C103.767 449.909 109.432 453.221 118.466 455.943C121.101 456.737 123.948 457.79 124.792 458.284C128.06 460.198 130.237 463.629 131.086 468.207C131.731 471.68 133.076 475.517 134.991 479.347C136.406 482.176 136.914 482.861 137.957 483.342C142.553 485.463 143.734 486.213 146.489 488.763C148.155 490.305 149.709 491.566 149.943 491.566C150.177 491.566 151.247 491.232 152.321 490.824C156.383 489.282 158.747 489.298 160.764 490.883C161.285 491.292 162.83 493.19 164.199 495.1C165.568 497.01 168.49 500.514 170.692 502.886C178.521 511.319 184.293 519.149 188.574 527.143C198.457 545.604 198.042 545.009 203.94 549.149C208.774 552.542 212.992 556.905 216.903 562.557C220.459 567.696 228.328 578.776 230.418 581.588C232.675 584.625 247.294 604.393 249.818 607.822C251.128 609.601 253.65 613.059 255.424 615.506C261.11 623.355 263.07 624.809 272.241 627.979C281.058 631.027 281.706 631.403 283.223 634.351C285.266 638.323 287.535 639.584 292.687 639.61C298.674 639.641 299.54 640.287 297.677 643.337C297.052 644.36 296.069 645.755 295.492 646.439L294.444 647.681L290.216 646.625C284.366 645.164 279.358 645.117 276.454 646.496C272.533 648.359 266.131 654.735 261.95 660.943C258.573 665.958 255.368 673.554 254.161 679.404C253.622 682.02 253.847 683.254 255.005 684.012C255.504 684.338 259.284 685.079 264.263 685.827C273.386 687.198 277.286 687.962 282.57 689.415C285.715 690.28 286.381 690.34 290.919 690.167C293.632 690.063 296.195 689.795 296.616 689.57C297.684 688.999 298.198 687.574 299.482 681.635C300.87 675.209 300.872 675.204 301.394 675.204C302.217 675.204 306.867 678.579 309.03 680.747C310.905 682.625 311.731 683.955 314.947 690.266C319.079 698.375 320.315 700 322.349 700C324.633 700 324.777 699.752 329.551 687.602C333.176 678.374 334.364 676.353 336.962 674.993C338.629 674.121 338.984 674.33 339.611 676.551C340.774 680.67 342.402 685.811 342.627 686.072C342.754 686.219 345.278 685.273 348.237 683.969C351.196 682.666 355.236 680.955 357.214 680.167C364.254 677.366 368.068 674.978 370.889 671.605C372.137 670.112 372.143 670.087 372.143 666.523V662.941L370.567 663.177C369.701 663.307 368.093 663.227 366.995 662.999C363.902 662.358 362.298 660.885 359.373 655.999C356.006 650.374 353.553 647.165 349.257 642.763C345.107 638.512 344.706 637.94 343.886 635.124C343.418 633.517 343.318 632.123 343.448 629.054C343.704 623.041 345.051 620.002 349.831 614.65C358.717 604.702 359.897 601.82 358.002 594.705C357.501 592.827 356.981 590.163 356.846 588.785C356.558 585.845 354.508 580.308 351.51 574.371C350.403 572.18 349.015 568.911 348.424 567.105C346.76 562.015 343.723 549.547 343.74 547.873C343.763 545.711 344.459 544.049 346.506 541.27C349.879 536.69 353.533 530.458 355.088 526.635C357.405 520.939 361.52 515.92 366.626 512.561C372.703 508.562 374.948 505.806 384.372 490.771C387.757 485.369 388.68 484.472 391.321 484.014C392.447 483.819 394.276 483.503 395.386 483.311C397.742 482.904 401.714 480.772 406.616 477.284C410.465 474.545 417.829 467.545 417.829 466.625C417.829 465.959 417.539 465.968 412.062 466.807C410.77 467.005 408.423 467.199 406.846 467.238L403.98 467.308L403.868 466.152C403.676 464.169 404.978 462.12 410.44 455.809C419.554 445.277 422.655 440.691 424.289 435.327C425.368 431.784 425.601 427.101 424.896 423.106C424.232 419.338 422.409 413.688 421.934 413.927C421.754 414.017 420.878 415.672 419.988 417.606C419.098 419.54 418.255 421.123 418.115 421.126C417.976 421.128 417.767 420.523 417.652 419.782C416.814 414.417 414.994 409.969 411.806 405.497C409.801 402.683 405.36 397.771 404.822 397.771C404.611 397.771 404.522 399.227 404.598 401.454C404.71 404.76 404.95 405.875 406.939 412.325C408.157 416.278 409.346 420.623 409.579 421.981C410.193 425.549 409.867 431.672 408.955 433.707C408.195 435.405 406.474 437.66 405.941 437.66C405.769 437.66 405.581 432.757 405.523 426.763L405.419 415.864L404.412 414.346C403.126 412.406 402.445 412.142 401.556 413.24C401.064 413.847 400.923 414.412 401.071 415.186C401.725 418.617 401.713 418.893 400.782 421.586C400.073 423.64 399.843 425.012 399.843 427.2C399.843 429.502 399.474 431.527 398.043 437.092C395.915 445.363 395.774 445.768 394.85 446.262C393.363 447.057 392.643 446.175 390.987 441.533C390.474 440.095 389.927 438.782 389.772 438.616C389.358 438.174 388.397 441.349 387.771 445.23C386.547 452.825 383.307 461.417 376.991 473.824C370.989 485.615 364.86 493.62 355.645 501.707C353.342 503.728 349.354 507.335 346.782 509.724C334.25 521.364 331.335 523.972 329.938 524.79C328.224 525.793 323.939 526.919 323.939 526.366C323.939 526.171 324.808 524.851 325.871 523.433C328.285 520.211 328.785 519.223 329.323 516.616C329.76 514.496 329.692 513.565 328.755 508.846C328.324 506.677 328.312 506.124 328.69 505.868C329.962 505.012 331.485 504.352 333.566 503.758C336.262 502.988 344.422 498.799 348.237 496.227C359.968 488.319 368.022 477.4 369.637 467.215C369.848 465.882 370.52 463.337 371.129 461.559C372.126 458.649 372.266 457.695 372.524 452.036C372.682 448.576 372.922 444.853 373.057 443.76C373.368 441.245 372.82 437.7 371.417 433.146C369.243 426.094 369.209 425.676 368.909 402.263C368.595 377.762 368.922 380.547 364.952 368.482C359.117 350.748 359.157 351.001 358.859 329.85C358.624 313.185 358.579 312.32 357.824 310.128C356.908 307.468 356.825 305.533 357.55 303.798L358.065 302.567L377.965 302.462C392.389 302.387 398.211 302.473 399.123 302.776C399.816 303.006 401.111 303.478 402.001 303.825C403.238 304.306 405.232 304.511 410.455 304.691C415.207 304.856 418.605 305.178 421.607 305.748C427.382 306.845 434.081 306.665 439.953 305.256C443.012 304.521 445.34 304.244 450.212 304.033C453.678 303.884 456.754 303.611 457.047 303.428C457.34 303.245 460.898 302.982 464.954 302.843C470.057 302.67 474.268 302.293 478.624 301.623C487.088 300.32 493.684 300.282 500.748 301.494L505.784 302.358H552.729C595.402 302.358 600.28 302.299 606.329 301.705C609.99 301.347 614.497 300.831 616.345 300.559C618.466 300.247 620.017 300.183 620.55 300.386C621.794 300.858 625.313 305.245 626.6 307.928C628.08 311.013 628.107 313.589 626.693 316.912C625.208 320.402 625.079 322.854 626.222 325.821C627.819 329.966 627.941 330.956 627.989 340.184C628.031 348.29 627.937 349.791 626.924 357.162L625.812 365.248L623.895 366.865C622.841 367.754 620.035 370.351 617.661 372.636C615.287 374.921 612.373 377.606 611.186 378.604C608.887 380.534 599.505 387.314 598.14 388.03C597.189 388.53 597.332 388.81 596.233 384.294C595.124 379.734 591 370.36 587.46 364.349C579.493 350.82 574.389 342.418 573.627 341.575C572.568 340.402 570.816 339.553 569.457 339.553C568.335 339.553 565.922 340.345 557.945 343.332C550.653 346.063 548.841 346.584 544.815 347.104C538.176 347.963 530.652 349.921 525.629 352.096C523.415 353.056 522.745 353.043 517.655 351.943C512.737 350.881 511.596 350.345 508.551 347.663C505.469 344.95 503.978 344.624 502.677 346.381C502.31 346.875 501.91 348.023 501.788 348.932C501.424 351.624 502.357 353.98 505.76 358.965C507.445 361.432 509.636 364.664 510.629 366.146C514.189 371.459 515.125 372.659 517.507 374.956C519.595 376.97 520.105 377.286 521.256 377.286C522.422 377.286 522.922 376.963 525.268 374.691C526.742 373.263 528.384 371.289 528.917 370.303C529.455 369.308 530.394 368.217 531.029 367.85C532.675 366.897 541.358 365.509 549.492 364.897C553.35 364.607 557.072 364.203 557.763 364C561.109 363.016 562.762 363.869 563.729 367.077C564.619 370.031 565.974 377.078 567.455 386.45C570.417 405.198 570.373 406.23 566.445 410.301C563.003 413.868 562.72 416.843 565.297 422.339C569.971 432.307 574.068 440.057 575.739 442.094C576.738 443.312 578.104 445.36 578.775 446.645C580.264 449.497 582.227 455.536 582.227 457.266C582.227 458.475 582.122 458.581 579.979 459.54C578.743 460.093 576.628 460.911 575.281 461.358C572.266 462.358 572.471 462.501 568.707 456.783C567.224 454.53 564.914 451.529 563.574 450.114C558.559 444.821 557.646 442.026 557.61 431.859C557.583 423.989 557.526 423.796 554.941 422.717C550.367 420.808 544.804 424.797 544.818 429.976C544.819 430.546 545.391 433.761 546.088 437.121C546.785 440.482 547.662 444.848 548.037 446.824C548.909 451.423 549.57 453.376 551.379 456.707C555.93 465.082 562.119 472.74 565.859 474.622C568.46 475.931 585.919 481.427 589.961 482.209C592.525 482.705 596.325 483.072 600.753 483.252C608.197 483.554 609.633 483.919 610.303 485.681C610.709 486.747 609.969 490.379 608.817 492.969C607.029 496.992 606.613 501.705 607.617 506.563C608.314 509.935 609.431 512.186 611.245 513.873C613.178 515.671 614.117 516.19 617.158 517.144C622.331 518.768 632.434 518.052 637.191 515.725C642.744 513.009 646.947 504.609 645.038 500.044C644.256 498.174 644.308 497.355 645.357 495.105C646.745 492.127 646.821 491.176 645.792 489.661C645.305 488.944 644.797 487.583 644.664 486.638C644.114 482.727 642.771 480.38 640.546 479.44C639.831 479.138 637.63 478.71 635.657 478.49L632.069 478.09L630.89 475.812C629.423 472.977 629.373 471.226 630.611 466.121C632.026 460.284 632.103 458.891 631.148 456.34C630.164 453.711 630.309 453 632.77 448.441C636.457 441.609 638.808 441.156 643.954 446.287C648.98 451.298 651.289 456.596 651.304 463.151C651.313 467.284 652.028 469.261 653.853 470.204C655.527 471.069 658.966 470.753 660.857 469.56C663.332 468 663.309 468.08 662.902 462.39L662.538 457.305L660.645 453.611C656.857 446.221 650.213 436.659 645.653 432.036C643.434 429.786 639.174 426.74 636.973 425.829C635.932 425.398 635.688 425.452 633.776 426.53C630.541 428.354 628.013 430.324 624.373 433.859L621.013 437.121L618.353 434.246C614.027 429.571 613.334 427.159 615.205 423.286C616.03 421.58 616.152 420.898 616.096 418.312C615.969 412.386 616.498 411.548 629.532 397.036C645.909 378.802 648.997 374.204 649.68 367.044C649.872 365.031 649.686 363.201 648.749 357.881C647.674 351.785 647.571 350.53 647.504 342.787C647.447 336.203 647.264 333.312 646.675 329.67C645.552 322.724 645.178 319.477 645.245 317.238C645.292 315.649 645.101 314.863 644.333 313.492L643.362 311.756L644.541 310.526C646.279 308.712 649.716 306.348 652.375 305.136C655.75 303.597 659.292 302.897 663.694 302.897C666.836 302.897 667.95 302.739 670.099 301.989C671.552 301.482 674.209 300.935 676.117 300.751C677.997 300.569 681.316 300.071 683.492 299.643C686.834 298.987 688.902 298.854 696.802 298.785C706.635 298.7 707.352 298.631 710.866 297.438L713.059 296.694L715.543 297.726C717.858 298.687 718.331 298.754 722.523 298.709C730.385 298.625 768.264 300.509 770.991 301.119C774.427 301.888 778.02 302.198 783.502 302.198C789.659 302.198 794.27 301.682 800.945 300.244C809.975 298.299 815.334 298.191 829.004 299.684C840.01 300.886 844.169 300.427 848.348 297.554C852.589 294.637 853.56 294.481 859.551 295.755C863.023 296.494 863.197 296.499 864.69 295.891C865.824 295.43 867.865 295.189 872.352 294.988C876.414 294.805 878.982 294.523 880.002 294.147C882.213 293.332 888 290.299 888 289.955C888 289.396 881.297 287.406 875.908 286.367C864.187 284.107 847.938 281.665 838.896 280.804C831.992 280.148 814.462 279.179 809.485 279.179C807.525 279.179 805.975 279.038 806.041 278.865C806.188 278.48 809.864 275.581 813.715 272.814C817.597 270.024 822.121 265.634 824.932 261.929C828.816 256.807 832.311 248.892 833.896 241.625C834.377 239.421 834.512 237.239 834.474 232.281C834.389 221.036 833.626 217.548 829.369 208.922C826.554 203.22 823.954 199.727 819.115 195.152C814.258 190.559 811.305 188.795 804.814 186.612C798.91 184.625 795.986 184.141 789.973 184.151C783.702 184.162 780.162 184.777 775.224 186.715C769.568 188.934 764.749 192.166 759.134 197.508C757.57 198.995 756.551 199.714 756.256 199.538C756.004 199.389 754.746 198.35 753.46 197.231C752.174 196.111 750.15 194.501 748.963 193.652C745.904 191.464 744.826 190.391 744.826 189.532C744.826 189.12 745.298 187.655 745.874 186.275C746.45 184.895 747.271 182.068 747.698 179.993C748.126 177.917 748.718 175.263 749.014 174.094C749.709 171.354 751.607 167.469 752.479 167.003C752.957 166.747 754.154 166.819 756.527 167.246C758.514 167.604 761.061 167.799 762.734 167.723C765.114 167.615 765.8 167.437 766.981 166.617C768.858 165.315 769.422 164.384 768.913 163.433C768.693 163.021 766.452 161.682 763.788 160.369C758.722 157.873 757.777 157.229 757.777 156.274C757.777 155.536 758.478 154.917 760.834 153.575C761.824 153.011 763.537 151.649 764.643 150.546C767.501 147.698 768.259 145.542 768.378 139.923C768.439 137.096 768.655 135.178 769.006 134.353C769.781 132.534 771.659 130.866 773.86 130.043C779.351 127.991 782.904 125.056 784.981 120.857C786.081 118.633 786.334 117.665 786.59 114.696C786.757 112.759 786.999 110.641 787.127 109.99C787.417 108.522 786.356 105.219 784.193 100.858C781.156 94.7346 778.788 91.5283 772.14 84.5393C767.42 79.5774 765.221 76.4811 763.844 72.8616C762.799 70.1131 761.979 69.1349 759.088 67.1861C754.88 64.3488 750.13 62.1459 746.528 61.3607C744.742 60.9711 742.423 60.2477 741.376 59.7528C737.635 57.9848 733.675 53.5433 733.675 51.1158C733.675 50.4775 734.16 48.7439 734.754 47.263C735.948 44.2842 736.154 41.6604 735.345 39.7274C735.077 39.0859 734.056 37.8374 733.078 36.9537C732.099 36.0697 731.145 35.1041 730.958 34.8076C730.77 34.5111 730.614 31.6811 730.609 28.5186C730.602 23.1098 730.544 22.6225 729.621 20.3024C727.657 15.3643 724.517 12.3596 717.749 8.94162C711.771 5.92256 709.001 6.02391 703.816 9.45122C700.401 11.7088 699.25 11.9826 694.629 11.6365C691.539 11.4051 691.232 11.4425 690.538 12.1361C690.125 12.5486 689.787 13.1876 689.787 13.5559C689.787 14.4173 691.269 15.9073 693.653 17.4414C696.106 19.0201 696.626 19.878 696.924 22.8377C697.33 26.8519 696.857 29.4023 695.112 32.619L693.575 35.452L694.069 37.1963C694.34 38.1555 694.786 39.7489 695.06 40.7372C695.333 41.7255 695.646 43.9895 695.755 45.7684C695.986 49.5381 696.681 51.7684 697.929 52.7495C698.419 53.1344 699.861 53.7956 701.134 54.2186C702.408 54.6419 703.538 55.1317 703.647 55.3075C703.755 55.4828 703.5 56.2993 703.08 57.1219C701.99 59.2555 701.821 61.8167 702.553 65.1024C703.409 68.9419 703.193 72.8077 701.977 75.4224C700.165 79.3202 690.784 89.7271 683.815 95.5708C678.194 100.284 675.317 103.5 674.486 106C673.615 108.621 672.693 109.246 669.207 109.584C665.13 109.979 659.762 111.219 657.74 112.234C655.316 113.45 651.042 116.32 650.308 117.225C649.961 117.652 648.474 118.401 647.003 118.889C644.235 119.807 640.903 121.755 639.542 123.251C637.293 125.721 635.856 130.41 635.587 136.15C635.404 140.063 635.453 140.464 636.504 143.696C638.398 149.519 641.267 153.942 647.238 160.244C649.686 162.827 649.69 163.009 647.501 171.732C645.178 180.988 643.84 184.932 642.786 185.628C642.104 186.079 641.65 186.049 639.009 185.379C634.802 184.311 625.544 184.021 620.467 184.798C614.604 185.694 606.683 189.114 602.055 192.746C600.902 193.651 598.043 196.449 595.702 198.962C593.361 201.475 591.031 203.824 590.524 204.181C589.392 204.979 587.481 204.822 583.846 203.634L581.328 202.812L581.228 196.882C581.116 190.213 581.385 188.446 583.015 185.175C584.002 183.194 584.096 182.769 583.729 181.964C582.765 179.85 583.097 179.121 586.911 174.971C592.182 169.235 593.264 166.426 591.414 163.273C590.35 161.459 589.384 161.038 585.825 160.837C581.933 160.616 580.125 161.094 576.922 163.188C573.207 165.617 570.876 166.609 567.744 167.095C562.101 167.97 553.553 166.735 552.234 164.853C551.428 163.704 552.027 162.621 555.767 158.469C559.353 154.488 561.971 150.117 562.782 146.759C563.019 145.775 563.269 143.003 563.338 140.598C563.515 134.39 563.495 134.418 569.682 131.72C579.976 127.232 582.393 121.003 578.409 109.232C575.568 100.836 569.934 93.7064 561.323 87.6072C559.277 86.1579 556.385 83.8141 554.897 82.3992C553.408 80.984 551.672 79.5616 551.038 79.2386C549.369 78.3861 545.905 78.4713 543.701 79.4186C541.481 80.3727 538.88 80.193 536.026 78.8878C532.447 77.2509 532.093 74.7727 534.94 71.2807C535.821 70.2008 536.541 69.168 536.541 68.9858C536.541 68.8036 536.138 67.8717 535.644 66.9144C535.151 65.9574 534.341 63.3279 533.844 61.0707C532.83 56.4596 531.882 54.5632 529.583 52.5414C527.306 50.539 525.201 49.8971 520.917 49.8993C516.257 49.9018 513.667 50.6209 511.52 52.5091C508.696 54.9919 508.046 56.8901 507.396 64.5483C506.795 71.6314 507.54 78.0214 509.61 83.5488C510.444 85.7773 511.252 86.3361 514.219 86.7379C516.832 87.0915 518.195 88.3788 518.195 90.4937C518.195 92.882 517.357 94.2634 513.436 98.3372C511.397 100.456 508.517 103.561 507.037 105.238C502.62 110.242 499.491 112.914 494.763 115.72C490.484 118.259 487.87 118.947 481.322 119.256C475.019 119.553 473.23 119.984 470.176 121.937C464.233 125.739 460.885 132.934 459.385 145.134C458.204 154.737 457.012 160.441 455.062 165.822C453.602 169.853 453.686 170.248 456.51 172.587C458.365 174.123 459.199 175.695 459.199 177.655C459.199 178.359 458.287 182.528 457.173 186.921C456.06 191.313 454.758 196.847 454.28 199.219C453.803 201.591 453.193 203.751 452.926 204.02C452.516 204.432 452.08 204.419 450.153 203.938C442.494 202.024 436.388 202.324 428.082 205.023C420.385 207.524 414.463 212.057 409.122 219.537C405.398 224.752 402.613 231.475 401.478 237.988C400.763 242.091 400.764 248.618 401.48 252.079C402.855 258.731 406.522 266.898 410.824 272.89C412.101 274.669 413.094 276.286 413.031 276.483C412.968 276.681 412.037 277.293 410.964 277.843C408.683 279.012 404.113 279.519 395.706 279.537C392.5 279.543 389.035 279.805 386.173 280.257C380.671 281.125 372.722 281.198 365.089 280.452C353.834 279.35 347.957 279.179 321.538 279.179C294.982 279.179 294.317 279.162 291.889 278.425C290.523 278.01 289.405 277.508 289.405 277.309C289.405 277.11 291.333 274.868 293.69 272.326C298.714 266.908 301.262 263.228 303.987 257.458C307.714 249.564 309.008 243.603 308.983 234.437C308.968 228.775 308.848 227.453 308.019 223.836C305.854 214.388 303.379 209.073 297.558 201.375C296.362 199.794 294.565 197.726 293.563 196.779C288.862 192.335 278.705 186.561 272.206 184.638C271.354 184.385 270.5 183.888 270.31 183.532C269.878 182.726 270.476 176.186 271.193 173.871C271.47 172.974 272.617 170.467 273.74 168.3C276.466 163.043 276.817 160.828 275.913 154.593C275.078 148.839 275.309 147.941 278.34 145.157C280.474 143.196 282.199 140.378 282.207 138.839C282.209 138.441 282.759 135.934 283.429 133.269C285.083 126.691 285.591 120.997 285.342 111.804C285.143 104.413 284.145 94.3486 283.138 89.5658C282.85 88.2009 282.515 85.7927 282.392 84.2147C281.965 78.7211 278.859 65.2476 276.807 59.9879C274.895 55.0886 274.145 53.6881 271.983 50.9792C270.957 49.6945 269.833 48.188 269.485 47.6317C268.375 45.8546 266.382 40.8871 266.383 39.8966C266.383 39.3709 267.03 37.9895 267.821 36.8273C269.97 33.6666 270.15 32.706 270.155 24.3859L270.159 17.0188L269.08 14.8917C266.863 10.5207 262.929 7.4779 258.564 6.75845C252.196 5.70945 244.303 9.14 241.285 14.2693C240.307 15.931 240.301 15.9853 240.187 23.7214C240.124 28.0011 240.236 32.3876 240.436 33.4697C240.848 35.697 244.42 45.4985 245.32 46.8698C245.645 47.365 246.672 48.1057 247.603 48.5157C251.151 50.079 251.087 50.0276 251.203 51.4144C251.355 53.2102 250.162 55.4667 248.813 55.9363C247.283 56.4693 246.402 55.8824 243.779 52.586C240.081 47.9379 235.989 43.9345 232.637 41.6827C226.514 37.5697 224.653 34.2617 224.653 27.4905C224.653 22.7914 222.546 16.6691 219.241 11.7641C217.277 8.84962 212.09 3.50977 209.654 1.89404C208.197 0.928418 207.197 0.57659 205.155 0.311735C201.564 -0.154367 198.104 -0.0929155 196.594 0.463388ZM120.626 89.2589C124.477 91.4226 126.087 91.9473 128.875 91.9473H131.212L130.976 93.1153C130.847 93.7578 130.42 97.0324 130.028 100.392C128.484 113.628 127.078 117.484 123.094 119.415C120.377 120.733 117.523 121.28 116.855 120.613C115.621 119.38 115.305 111.018 116.201 103.267C116.498 100.698 116.845 96.1296 116.972 93.1153C117.1 90.1009 117.324 87.6349 117.47 87.6349C117.616 87.6349 119.036 88.3655 120.626 89.2589ZM186.284 93.3014C185.382 99.6651 178.805 126.458 177.846 127.675C177.087 128.64 175.044 129.799 165.117 134.898C150.855 142.225 147.375 144.747 146.057 148.711C145.417 150.637 145.426 153.273 146.091 158.152C146.313 159.778 146.278 159.868 145.288 160.257C143.906 160.799 137.471 160.438 132.371 159.532C130.201 159.147 127.858 158.782 127.165 158.721C125.949 158.614 125.907 158.561 125.936 157.173C125.952 156.382 126.724 153.367 127.653 150.473C131.057 139.853 130.789 135.128 126.456 129.376C125.659 128.318 125.007 127.225 125.007 126.947C125.007 126.668 125.89 125.481 126.969 124.309C130.836 120.107 132.926 114.039 133.659 104.885C134.041 100.117 134.569 97.5513 135.29 96.9526C135.68 96.6299 137.58 96.6798 143.443 97.1664C158.274 98.3976 170.853 96.9738 183.104 92.6765C184.687 92.1212 186.093 91.7328 186.228 91.8136C186.363 91.8945 186.389 92.564 186.284 93.3014ZM714.588 103.357C715.847 104.522 719.735 111.759 719.735 112.941C719.735 114.162 718.647 115.588 716.963 116.573C715.453 117.458 708.301 119.261 694.824 122.155C691.163 122.941 687.435 123.825 686.538 124.12C684.289 124.859 682.469 126.461 681.366 128.673C679.567 132.28 680.209 135.262 684.595 143.656C688.975 152.04 693.726 158.361 699.495 163.482C700.93 164.756 702.248 166.177 702.425 166.641C702.84 167.73 702.277 169.8 701.207 171.126L700.387 172.142L698.554 171.42C697.546 171.024 694.393 169.971 691.546 169.082C673.191 163.347 660.789 159.122 660.199 158.401C659.432 157.464 659.4 155.882 660.096 153.214C661.065 149.497 660.063 147.918 655.648 146.202C652.111 144.827 651.296 144.242 651.296 143.075C651.296 142.545 652.284 138.062 653.493 133.111C656.913 119.101 656.808 119.461 657.503 119.328C657.879 119.255 658.964 120.002 660.215 121.195C662.173 123.06 664.824 124.627 666.045 124.64C667.379 124.655 669.427 123.777 672.035 122.072C680.863 116.302 684.333 114.721 692.845 112.591C695.98 111.806 701.362 109.06 706.437 105.657C711.979 101.94 712.803 101.708 714.588 103.357ZM649.613 120.966C649.94 121.526 648.7 129.749 647.33 136.101C646.546 139.731 645.725 144.552 645.503 146.814C645.033 151.63 645.053 151.666 648.548 152.285C649.707 152.491 650.881 152.845 651.156 153.073C652.279 154.005 651.365 158.051 649.905 158.611C649.136 158.906 645.897 157.219 644.585 155.841C640.153 151.184 636.54 142.343 636.552 136.182C636.568 128.172 639.966 122.966 646.289 121.268C648.536 120.664 649.39 120.587 649.613 120.966ZM516.506 126.157C516.967 127.1 517.248 128.92 517.476 132.446C517.831 137.925 518.387 140.242 519.783 142.071C520.295 142.741 520.713 143.699 520.713 144.199C520.713 145.685 518.74 147.494 514.841 149.583C507.473 153.532 500.378 158.797 493.317 165.556C489.042 169.648 488.337 170.65 488.337 172.626C488.337 175.338 490.547 177.667 495.75 180.438C502.419 183.99 503.572 184.783 504.108 186.19C504.394 186.939 504.507 187.92 504.371 188.461C504.09 189.581 504.795 189.676 496.251 187.37C492.789 186.436 486.88 184.893 483.121 183.943C479.362 182.992 475.8 182.026 475.207 181.796C474.613 181.566 472.527 180.99 470.571 180.516C468.614 180.042 466.712 179.382 466.344 179.049C465.525 178.31 465.471 176.501 466.213 174.727C467.052 172.721 466.878 171.357 465.485 169.011C464.125 166.721 462.886 165.455 461.019 164.447L459.848 163.815L460.087 161.572C460.897 153.971 461.893 147.217 462.816 143.07C463.399 140.453 463.875 138.229 463.875 138.129C463.875 137.714 464.778 137.992 465.471 138.62C466.96 139.968 471.08 141.332 473.588 141.305C476.622 141.273 478.681 140.526 483.301 137.782C488.545 134.668 490.712 133.541 495.891 131.235C501.23 128.857 513.679 124.618 514.957 124.742C515.594 124.804 516.046 125.216 516.506 126.157ZM477.905 131.124C477.905 132.195 474.619 133.293 469.811 133.827C467.659 134.067 467.655 134.066 468.315 133.337C469.438 132.098 471.363 131.425 474.61 131.137C476.323 130.984 477.765 130.837 477.815 130.809C477.864 130.782 477.905 130.923 477.905 131.124ZM205.377 154.779C204.704 159.397 202.918 163.199 200.037 166.147C197.662 168.576 195.566 169.654 193.214 169.654C191.707 169.654 190.72 169.297 187.256 167.496C184.972 166.309 183.104 165.146 183.104 164.913C183.104 164.679 187.918 161.941 193.802 158.828C199.685 155.715 204.605 153.063 204.734 152.934C205.3 152.369 205.602 153.236 205.377 154.779ZM746.936 161.056C747.282 161.342 747.367 161.96 747.225 163.159C747.014 164.937 744.045 174.03 741.67 180.172L740.28 183.766L738.955 183.725C735.87 183.629 729.714 179.197 729.159 176.671C728.872 175.367 729.817 173.479 732.918 169.156C734.719 166.645 735.512 165.862 737.025 165.097C738.056 164.576 740.017 163.254 741.383 162.16C743.656 160.339 743.977 160.19 745.156 160.41C745.865 160.543 746.666 160.833 746.936 161.056ZM109.684 161.609C109.787 161.776 109.699 162.544 109.487 163.316C108.982 165.163 101.774 183.279 100.672 185.473C98.5667 189.661 99.229 185.532 101.734 178.849C104.331 171.919 108.854 161.306 109.209 161.306C109.367 161.306 109.581 161.442 109.684 161.609ZM660.159 165.74C661.714 166.203 666.387 167.676 670.542 169.015C674.697 170.353 682.651 172.87 688.219 174.608C693.786 176.346 698.746 178.033 699.241 178.357C699.83 178.742 700.54 179.966 701.296 181.895C701.931 183.517 703.568 187.071 704.933 189.793C706.298 192.515 707.413 195.103 707.412 195.543C707.406 197.938 705.268 201.555 703.859 201.555C703.156 201.555 688.886 192.342 680.794 186.664C667.222 177.142 658.953 170.06 657.045 166.325C656.163 164.597 656.256 164.58 660.159 165.74ZM112.58 166.067C113.729 171.311 113.829 178.881 112.814 183.766C112.071 187.345 110.154 192.63 109.361 193.288C108.958 193.621 108.462 193.499 107.006 192.708C104.311 191.242 103.303 189.909 103.519 188.095C103.649 187.002 108.629 173.189 111.525 165.888C111.87 165.016 112.368 165.101 112.58 166.067ZM154.399 167.221C156.859 168.343 158.462 169.776 160.126 172.339C160.794 173.367 161.34 174.277 161.34 174.361C161.34 174.686 157.375 176.191 151.616 178.051C143.657 180.622 143.16 180.617 137.883 177.907C135.648 176.761 131.422 174.943 128.491 173.869C125.56 172.796 122.849 171.626 122.466 171.269C121.52 170.389 121.505 167.679 122.442 166.743C123.08 166.106 123.861 166.076 137.715 166.17L152.314 166.269L154.399 167.221ZM655.293 176.865C655.964 177.319 659.021 179.374 662.088 181.433C665.155 183.492 670.64 187.263 674.277 189.813C677.915 192.363 685.118 197.232 690.285 200.634C698.646 206.137 707.097 211.853 712.758 215.833C715.414 217.701 715.745 218.467 715.471 222.117C715.172 226.093 715.716 228.775 717.57 232.459C720.143 237.573 719.653 239.565 714.429 245.216C709.97 250.039 708.876 251.914 709.37 253.882C709.5 254.398 711.096 256.313 712.917 258.137C716.604 261.833 718.186 262.598 721.114 262.104C723.832 261.645 730.448 257.698 732.699 255.191C733.235 254.594 733.272 254.322 732.922 253.555C732.409 252.43 731.065 251.839 728.359 251.548L726.306 251.328L729.9 249.032C734.514 246.086 735.23 245.454 739.884 240.224C742.014 237.832 743.935 235.875 744.155 235.875C744.374 235.875 745.09 237.833 745.745 240.227C750.336 257.007 758.158 267.771 771.507 275.679C773.254 276.714 774.684 277.67 774.684 277.802C774.685 278.356 765.64 280.827 757.777 282.42C754.613 283.061 752.802 283.181 746.625 283.158C741.522 283.14 738.198 283.304 735.833 283.693C731.782 284.358 720.784 284.86 708.314 284.949C700.049 285.009 698.886 284.938 693.957 284.073C690.568 283.478 687.272 283.132 685.001 283.132C682.017 283.132 680.851 282.953 678.12 282.079C675.26 281.165 673.408 280.904 663.874 280.076C657.755 279.546 652.265 278.896 651.445 278.606C648.282 277.487 648.193 277.686 654.305 272.266C662.367 265.118 664.877 261.505 669.119 250.944C672.128 243.453 672.626 240.439 672.411 231.023C672.181 220.927 671.359 217.532 667.078 209.01C663.778 202.438 660.582 198.458 654.473 193.313C650.603 190.053 650.127 189.233 650.609 186.657C651.312 182.895 653.357 176.04 653.776 176.04C653.939 176.04 654.622 176.411 655.293 176.865ZM265.867 178.378C266.134 179.804 265.782 182.752 265.308 183.044C264.616 183.471 264.269 180.442 264.756 178.23C265.08 176.754 265.574 176.821 265.867 178.378ZM554.444 177.499C558.609 177.889 569.203 179.785 569.596 180.21C569.717 180.341 567.631 180.358 564.96 180.248C561.549 180.106 558.573 179.72 554.961 178.95C549.753 177.84 547.679 177.149 549.492 177.13C549.986 177.125 552.215 177.291 554.444 177.499ZM167.227 178.825C168.83 181.937 170.251 188.729 170.892 196.344C171.175 199.704 171.565 203.585 171.758 204.969C171.95 206.352 172.278 208.975 172.487 210.798C172.695 212.62 172.961 214.358 173.077 214.661C173.415 215.54 172.414 215.316 170.581 214.103C168.281 212.581 164.6 208.525 162.016 204.667C156.361 196.22 149.871 187.595 147.804 185.777C146.878 184.963 146.186 184.235 146.265 184.161C146.346 184.087 148.013 183.516 149.971 182.893C151.929 182.269 153.864 181.581 154.271 181.363C154.679 181.145 155.748 180.759 156.647 180.504C157.546 180.249 159.658 179.547 161.34 178.943C165.274 177.531 166.547 177.506 167.227 178.825ZM260.788 179.758C261.638 183.197 257.247 185.789 254.22 183.636C252.786 182.615 252.783 182.143 254.208 180.522C255.617 178.919 257.138 178.216 259.007 178.306C260.359 178.371 260.467 178.46 260.788 179.758ZM118.136 182.058C117.152 187.527 113.808 197.242 112.909 197.242C112.082 197.242 112.337 195.893 114.367 189.525C115.439 186.16 116.503 182.7 116.731 181.835C116.958 180.97 117.312 179.838 117.516 179.319L117.887 178.376L118.197 179.183C118.379 179.656 118.354 180.846 118.136 182.058ZM126.85 180.869C130.873 181.721 134.806 183.995 140.296 188.644C145.483 193.037 151.745 200.196 154.141 204.475C157.283 210.086 163.264 216.969 168.984 221.559C170.32 222.63 171.413 223.758 171.413 224.065C171.413 225.708 168.588 227.769 164.578 229.053C161.882 229.917 160.244 231.05 159.044 232.883C158.467 233.764 158.462 233.932 158.976 234.926C159.749 236.421 160.055 236.554 163.238 236.795C165.365 236.955 166.27 237.195 167.015 237.794C170.387 240.508 170.793 240.726 172.458 240.726C173.37 240.726 174.651 240.573 175.306 240.385C176.892 239.931 177.874 240.418 178.876 242.158C179.319 242.926 180.587 244.532 181.695 245.727C186.007 250.38 192.3 251.805 198.651 249.566C202.034 248.374 214.844 247.064 215.891 247.803C216.117 247.962 216.907 249.71 217.645 251.687C220.519 259.38 224.659 266.136 229.774 271.482L232.917 274.767L232.339 276.462C232.021 277.394 231.556 278.235 231.305 278.331C231.054 278.428 228.038 277.917 224.603 277.196C213.452 274.857 210.199 275.006 193.896 278.604C182.092 281.209 177.331 281.825 170.873 281.58C168.103 281.475 164.461 281.136 162.779 280.826C157.4 279.837 151.442 279.55 136.159 279.542C116.372 279.533 110.264 279.28 109.134 278.42C108.337 277.813 108.316 277.71 108.819 276.89C109.116 276.407 111.111 274.096 113.252 271.755C122.971 261.132 127.294 250.994 127.791 237.659C128.179 227.251 126.335 218.736 121.802 210C119.451 205.469 118.526 203.946 117.376 202.715C115.656 200.872 115.57 200.388 116.571 198.202C117.071 197.113 117.875 194.389 118.36 192.15C119.384 187.414 120.903 182.319 121.635 181.161C122.244 180.198 123.379 180.134 126.85 180.869ZM554.168 181.47C567.461 182.97 571.628 183.499 572.272 183.769C573.414 184.247 573.594 185.592 573.594 193.676C573.594 200.815 573.532 201.614 572.948 202.114C572.593 202.417 570.386 203.308 568.042 204.092C562.867 205.825 560.221 207.062 556.507 209.484C554.949 210.499 553.342 211.453 552.934 211.604C551.8 212.023 550.485 211.385 549.492 209.931C548.741 208.833 548.592 208.194 548.592 206.073C548.592 203.948 548.813 203.003 549.941 200.31C552.215 194.88 551.582 192.755 547.291 191.403C544.412 190.497 542.091 188.891 541.235 187.213C540.272 185.327 540.267 182.899 541.225 181.683C542.403 180.187 542.752 180.181 554.168 181.47ZM220.434 184.306C226.422 185.49 231.084 187.257 234.546 189.658C235.636 190.413 235.96 190.862 235.885 191.51C235.762 192.571 234.624 193.814 233.261 194.378C232.03 194.888 232.313 195.041 222.315 188.413C215.911 184.168 214.278 182.881 215.887 183.346C216.257 183.453 218.303 183.885 220.434 184.306ZM578.511 185.387C579.283 188.348 578.867 195.464 577.708 199.112C577.313 200.355 576.332 199.688 576.011 197.958C575.614 195.818 575.942 187.048 576.492 185.097C577.066 183.061 577.938 183.187 578.511 185.387ZM490.604 192.15C500.111 194.525 505.17 195.951 505.66 196.394C506.065 196.761 506.848 198.032 507.399 199.218C513.312 211.951 514.663 215.377 515.525 219.825C516.567 225.199 516.843 225.151 510.371 220.73C505.707 217.545 495.581 210.483 468.192 191.318C467.104 190.556 465.728 189.597 465.134 189.186C463.378 187.969 463.109 187.278 464.031 186.358C464.636 185.752 467.464 186.369 490.604 192.15ZM463.886 195.135C464.743 195.756 473.054 201.517 482.354 207.939C502.013 221.513 502.821 222.073 507.583 225.41C509.561 226.797 512.129 228.571 513.288 229.353C516.145 231.281 516.601 232.144 516.878 236.151C517.004 237.976 517.352 240.262 517.651 241.233C517.95 242.203 518.195 243.135 518.195 243.303C518.195 243.809 514.569 245.954 512.271 246.806C510.518 247.456 506.352 248.556 499.229 250.248C498.247 250.481 497.573 251.651 497.875 252.601C498.293 253.919 499.991 255.559 501.812 256.407C503.228 257.065 504.257 257.253 506.504 257.263C511.838 257.285 514.065 258.23 513.676 260.305C513.354 262.02 514.098 262.434 517.057 262.187C518.4 262.074 520.514 261.64 521.754 261.223C523.691 260.571 529.792 257.871 532.549 256.446C534.039 255.676 534.81 254.22 535.292 251.273C535.793 248.199 536.348 246.476 536.835 246.476C537.525 246.476 539.104 250.196 539.973 253.869C541.994 262.416 544.721 267.231 552.084 275.262C553.824 277.159 555.247 278.842 555.247 279.001C555.247 279.161 550.427 279.179 544.534 279.042C533.471 278.785 525.48 279.105 518.015 280.103C513.217 280.745 489.591 281.431 478.085 281.263C471.098 281.161 469.487 281.034 467.73 280.45C466.118 279.914 465.704 279.633 465.888 279.199C466.019 278.892 466.206 278.235 466.304 277.741C466.402 277.247 467.121 276.073 467.901 275.131C474.04 267.733 477.522 259.718 478.769 250.119C479.486 244.594 479.488 242.697 478.781 237.897C477.784 231.132 475.231 224.916 471.287 219.652C468.893 216.456 463.17 210.51 460.548 208.494C458.878 207.21 458.479 206.704 458.479 205.87C458.479 203.696 460.612 195.472 461.439 194.457C461.957 193.821 462.141 193.872 463.886 195.135ZM529.096 196.434C530.757 197.693 530.765 198.11 529.122 197.844C527.721 197.617 526.469 196.713 526.469 195.929C526.469 195.139 527.7 195.376 529.096 196.434ZM745.413 197.04C747.419 198.39 753.46 203.96 753.46 204.46C753.46 204.931 751.456 205.867 750.448 205.867C749.958 205.867 749.1 205.499 748.541 205.049C747.982 204.598 746.877 203.817 746.085 203.313C742.447 200.993 741.965 200.618 741.609 199.837C741.4 199.38 741.23 198.811 741.23 198.573C741.233 197.851 742.627 195.805 743.117 195.805C743.37 195.805 744.403 196.361 745.413 197.04ZM796.112 196.187C808.672 198.432 819.581 208.627 823.029 221.342C824.432 226.516 824.86 231.084 824.358 235.542C822.776 249.579 813.667 261.534 801.164 265.98C793.804 268.598 787.889 268.657 780.876 266.185C769.644 262.224 760.274 251.757 758.777 241.499C758.119 236.985 756.945 237.357 771.004 237.632C777.678 237.762 784.845 238.051 786.932 238.273C789.019 238.496 791.316 238.567 792.037 238.432C794.514 237.967 796.073 234.956 795.201 232.318C794.876 231.333 794.125 230.593 791.838 229.004C787.152 225.747 783.322 222.715 774.954 215.638C768.649 210.305 767.13 208.848 767.13 208.13C767.13 206.239 772.603 201.157 777.022 198.943C778.982 197.963 782.815 196.754 785.656 196.222C788.172 195.751 793.573 195.733 796.112 196.187ZM89.8432 197.151C90.8559 197.607 91.552 198.157 91.552 198.5C91.552 198.818 91.0537 200.242 90.445 201.665C89.8364 203.087 87.9654 208.031 86.2876 212.653C83.1155 221.39 80.6301 226.806 78.1037 230.484C76.7954 232.389 76.623 232.878 76.623 234.687C76.623 236.533 76.7446 236.858 77.8627 238.011C78.9527 239.134 79.3164 239.289 80.8729 239.289C82.4511 239.289 82.7853 239.141 83.9501 237.93C84.6685 237.183 86.3898 234.971 87.7748 233.016C89.1597 231.059 92.3164 227.417 94.7895 224.921C101.453 218.197 109.398 210.899 110.056 210.899C110.836 210.899 113.637 215.302 115.315 219.168C117.507 224.215 118.32 228.673 118.33 235.695C118.339 242.522 117.762 245.518 115.367 251.068C111.663 259.651 104.015 267.684 96.1832 271.218C91.3966 273.378 83.5037 274.765 78.4217 274.339C69.5248 273.594 63.3273 270.65 56.4611 263.905C50.9079 258.451 47.9581 253.845 45.8958 247.408C40.9897 232.097 46.6383 213.089 58.7634 204.11C62.1931 201.57 65.7271 199.565 69.0133 198.296C73.715 196.481 75.6496 196.187 82.1989 196.289C87.3693 196.37 88.3546 196.481 89.8432 197.151ZM634.568 196.928C636.151 197.342 637.806 197.762 638.244 197.861C639.559 198.157 639.901 198.885 639.689 200.933C639.457 203.18 638.12 209.438 635.987 218.266C634.082 226.149 633.932 226.351 629.962 226.353C626.62 226.355 625.328 227.091 624.12 229.682C623.04 232 623.003 233.908 624 235.965C625.453 238.965 629.238 240.295 632.105 238.814C634.999 237.319 638.351 231.393 639.968 224.914C641.548 218.585 645.568 205.019 646.118 204.16C646.802 203.092 647.441 203.14 649.272 204.399C653.057 207 657.004 212.379 659.237 217.98C663.909 229.699 661.84 245.382 654.337 255.123C647.432 264.087 633.753 269.815 623.401 268.077C620.047 267.514 614.56 265.333 612.906 263.905L611.567 262.748L612.912 258.475C618.058 242.133 614.948 227.263 603.694 214.39C602.175 212.654 600.933 211.139 600.933 211.024C600.933 210.4 603.892 206.958 606.692 204.325C610.62 200.631 615.19 198.038 620.103 196.716C623.148 195.897 631.068 196.013 634.568 196.928ZM275.016 198.686C284.987 201.958 293.458 210.956 297.11 222.158C298.597 226.719 298.873 229.142 298.65 235.668C298.425 242.259 297.641 246.182 295.543 251.217C291.109 261.857 282.166 269.844 271.418 272.76C268.767 273.479 267.547 273.587 262.245 273.571C256.849 273.555 255.725 273.444 252.691 272.63C248.807 271.589 243.782 269.2 240.841 266.998C235.366 262.899 230.649 256.843 228.665 251.368C227.039 246.877 227.151 246.108 229.509 245.614C231.125 245.276 232.809 245.917 234.57 247.538C235.438 248.338 236.3 248.992 236.486 248.992C236.672 248.992 238.659 248.031 240.901 246.856C243.143 245.681 246.516 244.192 248.395 243.546C251.671 242.422 252.052 242.371 257.569 242.338C263.8 242.299 264.237 242.192 266.742 240.073C267.96 239.042 268.001 238.927 268.001 236.48C268.001 234.085 267.92 233.838 266.472 231.786C265.631 230.596 264.943 229.295 264.943 228.896C264.943 228.111 267.989 225.047 271.713 222.084C274.946 219.512 275.49 218.709 275.668 216.246C275.861 213.587 275.165 212.368 270.715 207.569L267.461 204.06V201.439C267.461 196.926 268.499 196.548 275.016 198.686ZM95.7979 199.65C95.899 200.332 90.7026 214.176 85.3041 227.609C83.208 232.824 82.9061 233.37 82.0564 233.473C81.2791 233.567 81.1197 233.442 81.1197 232.737C81.1197 232.055 87.9554 214.367 89.9065 210C90.1713 209.407 91.158 206.982 92.0991 204.611C93.0402 202.24 94.0532 199.929 94.35 199.476C94.9777 198.519 95.6417 198.599 95.7979 199.65ZM248.317 200.561C248.911 201.053 254.824 209.282 255.1 209.999C255.366 210.693 255.263 210.683 253.022 209.801C251.107 209.047 246.837 206.203 244.264 203.969C242.902 202.787 242.854 202.676 243.324 201.801C244.269 200.036 246.897 199.384 248.317 200.561ZM734.034 200.875C734.034 201.905 733.022 203.711 732.445 203.711C731.626 203.711 731.46 202.588 732.138 201.634C733.359 199.913 733.463 199.807 733.748 199.983C733.905 200.08 734.034 200.482 734.034 200.875ZM101.407 202.222C101.98 202.547 102.772 203.246 103.167 203.775L103.885 204.737L103.075 206.111C102.63 206.866 100.219 210.315 97.7178 213.773C92.8099 220.561 92.4409 220.763 93.3467 216.164C94.0021 212.836 97.5678 202.72 98.4675 201.638C98.8894 201.13 99.8039 201.312 101.407 202.222ZM530.855 201.568C531.639 201.786 532.274 202.222 532.404 202.633C532.526 203.016 532.211 204.476 531.706 205.878C531.2 207.279 530.785 208.901 530.785 209.483C530.785 210.805 530.317 210.828 529.426 209.551C527.488 206.771 527.303 201.188 529.149 201.198C529.356 201.199 530.124 201.366 530.855 201.568ZM745.126 204.629C747.774 205.952 750.222 208.31 750.222 209.537C750.222 209.903 749.721 211.502 749.108 213.09C747.581 217.046 747.45 217.089 741.72 215.543C739.163 214.853 737.1 214.103 736.993 213.825C736.675 212.998 737.887 208.186 739.039 205.698C740.066 203.483 740.195 203.352 741.349 203.352C742.03 203.352 743.702 203.917 745.126 204.629ZM191.445 205.211C192.664 206.356 192.415 208.337 190.982 208.886C189.632 209.404 188.951 207.451 189.75 205.352C190.177 204.229 190.38 204.212 191.445 205.211ZM221.775 205.978C221.775 206.435 221.552 207.113 221.279 207.486C220.804 208.136 220.744 208.137 219.821 207.533C217.922 206.291 218.294 205.165 220.606 205.154C221.589 205.149 221.775 205.281 221.775 205.978ZM236.221 214.223C237.904 215.655 240.755 218.041 242.557 219.523C244.359 221.006 245.843 222.364 245.855 222.542C245.888 223.02 239.495 222.521 234.719 221.672C229.742 220.787 228.25 220.337 228.25 219.72C228.25 218.023 231.789 211.617 232.726 211.617C232.965 211.617 234.537 212.79 236.221 214.223ZM217.804 216.601C217.38 217.587 216.721 218.676 216.34 219.02C214.931 220.293 209.544 219.973 209.544 218.615C209.544 217.977 212.498 215.566 215.693 213.595L218.358 211.951L218.467 213.379C218.535 214.259 218.281 215.495 217.804 216.601ZM771.913 219.29C775.613 222.423 778.641 225.132 778.641 225.31C778.641 225.487 778.358 225.63 778.012 225.627C777.017 225.619 760.258 220.709 759.858 220.309C759.299 219.75 760.116 217.745 761.566 216.119C762.267 215.334 762.937 214.283 763.056 213.783C763.175 213.284 763.342 212.751 763.427 212.599C763.616 212.264 763.57 212.227 771.913 219.29ZM547.169 213.937C547.655 214.422 548.053 215.166 548.053 215.589C548.053 216.013 547.178 217.772 546.109 219.499C543.729 223.342 541.935 226.88 540.853 229.866C540.402 231.108 539.9 232.206 539.737 232.307C539.301 232.576 537.383 231.501 537.131 230.846C536.524 229.265 544.39 213.055 545.765 213.055C546.052 213.055 546.684 213.452 547.169 213.937ZM445.49 214.146C448.754 215.05 450.205 215.777 450.205 216.509C450.205 216.817 449.885 218.228 449.493 219.644C449.101 221.06 448.046 225.453 447.149 229.406C446.047 234.256 445.321 236.739 444.914 237.043C444.559 237.307 443.219 237.492 441.648 237.492C439.77 237.492 438.675 237.675 437.932 238.113C434.858 239.927 434.577 246.474 437.484 248.538C440.891 250.957 444.446 249.964 446.789 245.937C447.249 245.146 449.324 238.787 451.4 231.806C453.476 224.824 455.259 219.027 455.363 218.923C455.466 218.82 456.253 219.218 457.111 219.808C464.751 225.059 468.912 233.391 468.903 243.421C468.898 247.978 468.366 250.866 466.769 255.005C460.815 270.428 443.305 278.093 429.649 271.255C419.001 265.923 412.433 255.419 412.433 243.72C412.433 231.667 418.618 221.345 428.981 216.1C434.391 213.362 440.181 212.677 445.49 214.146ZM572.514 223.476C572.514 228.813 572.393 233.155 572.245 233.126C572.096 233.097 569.223 230.253 565.859 226.807L559.744 220.543L561.843 218.621C562.997 217.564 564.697 216.337 565.62 215.894C567.235 215.12 571.135 213.852 572.065 213.799C572.414 213.779 572.514 215.94 572.514 223.476ZM584.032 214.425L584.837 215.076L584.09 218.288C583.154 222.316 582.281 228.596 581.984 233.438C581.859 235.484 581.637 237.232 581.491 237.323C581.121 237.551 580.209 235.16 579.667 232.538C579.307 230.793 579.302 229.294 579.646 225.204C579.884 222.376 580.076 218.96 580.073 217.613C580.071 216.266 580.237 214.851 580.441 214.468C580.925 213.565 582.938 213.54 584.032 214.425ZM577.297 214.402C577.379 214.55 577.236 217.583 576.979 221.141C576.723 224.698 576.493 228.337 576.469 229.226C576.43 230.695 576.392 230.761 576.055 229.945C575.458 228.499 575.19 215.349 575.744 214.682C576.227 214.1 577.049 213.952 577.297 214.402ZM535.762 221.74C533.192 226.756 533.121 226.853 533.008 225.476C532.863 223.7 533.492 221.146 534.461 219.579C535.179 218.416 537.938 216.127 538.247 216.436C538.331 216.52 537.212 218.906 535.762 221.74ZM744.646 219.474C745.888 220.193 746.152 221.237 745.577 223.153C745.111 224.709 744.188 225.073 741.641 224.705C739.794 224.438 739.122 224.037 738.725 222.966C738.42 222.14 738.914 219.606 739.524 218.872C740.059 218.228 743.115 218.587 744.646 219.474ZM598.517 224.885C601.368 227.903 603.137 230.974 604.23 234.797C605.46 239.106 605.379 245.563 604.025 251.058C603.477 253.282 602.895 255.101 602.731 255.101C602.317 255.101 600.138 252.077 598.625 249.403C595.91 244.606 594.458 238.777 594.458 232.681C594.458 229.199 595.012 223.317 595.398 222.692C595.754 222.117 596.199 222.43 598.517 224.885ZM558.35 224.585C559.238 225.196 561.034 226.692 562.342 227.91C564.859 230.255 569.996 235.958 569.996 236.407C569.996 237.031 559.894 235.015 554.438 233.304C551.35 232.335 551.196 232.087 552.196 229.695C552.956 227.877 555.902 223.476 556.359 223.476C556.567 223.476 557.463 223.976 558.35 224.585ZM767.638 225.792C771.414 226.868 775.607 228.022 776.955 228.357C778.303 228.692 779.274 229.076 779.114 229.211C778.227 229.953 759.615 227.884 758.257 226.892C757.766 226.533 757.767 226.352 758.264 225.163C758.711 224.096 759.01 223.836 759.795 223.836C760.332 223.836 763.861 224.716 767.638 225.792ZM214.398 229.496C214.539 229.842 214.793 232.955 214.964 236.414C215.135 239.873 215.321 243.097 215.377 243.579C215.466 244.336 215.26 244.52 213.861 244.936C211.553 245.621 204.895 246.288 204.481 245.874C204.273 245.666 204.432 244.947 204.898 243.983C206.235 241.218 206.688 239.195 206.969 234.739C207.133 232.122 207.427 230.149 207.701 229.819C208.256 229.151 209.059 228.979 211.934 228.916C213.731 228.876 214.191 228.984 214.398 229.496ZM235.085 230.101C238.408 230.706 239.762 231.214 239.762 231.859C239.762 232.777 236.116 239.099 234.786 240.487C233.07 242.279 231.122 243.26 228.834 243.483C226.576 243.704 225.816 243.216 225.361 241.256C224.981 239.618 224.892 230.186 225.253 229.825C225.672 229.406 232.284 229.592 235.085 230.101ZM201.88 232.101C202.44 233.743 202.46 236.86 201.922 238.655C201.332 240.623 198.784 243.345 196.694 244.24C193.982 245.402 192.581 245.537 190.239 244.861C187.076 243.949 184.959 242.184 183.623 239.344C182.337 236.612 182.774 232.101 184.325 232.101C186.225 232.101 187.241 233.578 187.241 236.34C187.241 238.478 187.807 239.09 190.304 239.65C192.054 240.043 193.248 239.96 195.938 239.26L197.26 238.916L197.197 236.317C197.1 232.363 198.181 230.576 200.551 230.77C201.229 230.825 201.556 231.154 201.88 232.101ZM744.983 231.374C746.138 231.812 746.153 232.462 745.036 233.511C744.332 234.172 743.937 234.279 742.967 234.071C741.702 233.801 740.869 233.292 740.869 232.79C740.869 232.624 741.224 232.159 741.657 231.756C742.519 230.953 743.561 230.834 744.983 231.374ZM559.836 237.306C563.442 238.168 567.838 239.984 567.838 240.612C567.838 241.001 567.6 241.107 567.029 240.972C566.584 240.867 564.924 240.601 563.341 240.383C561.758 240.164 559.33 239.725 557.945 239.407C555.357 238.814 550.93 237.018 550.93 236.562C550.93 236.168 557.304 236.701 559.836 237.306ZM254.331 239.114C254.331 240.095 254.215 240.197 252.982 240.299C251.835 240.393 251.633 240.302 251.633 239.69C251.633 238.874 252.977 237.783 253.791 237.938C254.128 238.002 254.331 238.445 254.331 239.114ZM534.742 240.608C534.742 241.437 533.69 242.523 532.888 242.523C532.029 242.523 532.05 242.123 532.97 240.954C533.811 239.886 534.742 239.704 534.742 240.608ZM554.717 242.337C559.164 242.888 566.308 244.51 566.939 245.113C567.541 245.688 553.449 245.31 552.369 244.722C551.276 244.126 549.492 242.499 549.492 242.096C549.492 241.708 549.725 241.718 554.717 242.337ZM584.714 247.799C586.231 252.024 590.831 260.766 592.866 263.291C593.934 264.617 594.811 265.893 594.813 266.125C594.828 267.516 587.245 271.674 583.127 272.532C573.867 274.462 563.368 271.161 557.236 264.393C553.167 259.9 550.963 255.436 550.402 250.549C550.169 248.522 550.212 248.297 550.909 247.925C552.092 247.293 563.377 247.415 567.478 248.105C569.358 248.421 572.688 248.769 574.878 248.878C579.37 249.103 580.09 248.887 582.208 246.686C582.89 245.978 583.539 245.398 583.65 245.398C583.762 245.398 584.24 246.479 584.714 247.799ZM266.382 301.545C271.689 302.154 275.405 302.32 284.728 302.363C295.071 302.41 296.918 302.508 300.736 303.206C306.48 304.257 314.702 304.679 329.605 304.687C336.382 304.691 341.926 304.833 341.926 305.003C341.926 307.825 343.88 325.488 344.431 327.642C344.863 329.333 345.163 331.663 345.161 333.324C345.159 336.055 344.067 345.599 342.662 355.172C341.369 363.981 341.408 367.336 342.868 373.029C343.306 374.739 343.437 377.655 343.485 386.755L343.545 398.31L344.534 400.673C345.696 403.451 345.762 404.937 344.815 407.022C343.589 409.72 343.364 412.335 343.377 423.801C343.39 435.888 343.68 440.565 344.691 445.028C345.579 448.943 345.548 452.177 344.604 454.012C343.776 455.623 339.613 458.673 335.263 460.857C333.078 461.955 332.227 462.166 328.955 462.428L325.172 462.73L311.391 469.627C303.812 473.421 297.521 476.435 297.411 476.324C297.201 476.114 295.431 467.005 293.879 458.145C293.259 454.611 292.863 450.563 292.645 445.567C292.462 441.347 292.067 436.971 291.722 435.325C291.33 433.456 291.025 429.558 290.852 424.184C290.66 418.251 290.416 415.322 289.987 413.803C288.545 408.705 286.239 404.118 282.712 399.332C280.666 396.556 277.861 394.333 273.936 392.378C272.258 391.542 270.642 390.253 268.212 387.812C264.227 383.809 261.235 381.368 256.785 378.488C253.568 376.406 251.919 375.402 245.723 371.756C240.55 368.712 237.235 365.485 234.781 361.104C232.143 356.397 226.717 337.908 224.975 327.694C224.399 324.316 224.263 322.426 224.426 320.075C224.674 316.503 226.166 309.117 227.043 307.127C228.023 304.903 230.055 304.235 241.74 302.294C244.906 301.768 248.71 301.13 250.194 300.876C253.385 300.33 257.146 300.486 266.382 301.545Z" fill="white"/>
</svg>
